<svg id="visual" viewBox="0 0 900 600" width="900" height="600" xmlns="http://www.w3.org/2000/svg" xmlns:xlink="http://www.w3.org/1999/xlink" version="1.1"><path d="M0 73L13.7 77C27.3 81 54.7 89 82 87C109.3 85 136.7 73 163.8 74C191 75 218 89 245.2 87C272.3 85 299.7 67 327 61C354.3 55 381.7 61 409 65C436.3 69 463.7 71 491 68C518.3 65 545.7 57 573 54C600.3 51 627.7 53 654.8 52C682 51 709 47 736.2 51C763.3 55 790.7 67 818 66C845.3 65 872.7 51 886.3 44L900 37L900 0L886.3 0C872.7 0 845.3 0 818 0C790.7 0 763.3 0 736.2 0C709 0 682 0 654.8 0C627.7 0 600.3 0 573 0C545.7 0 518.3 0 491 0C463.7 0 436.3 0 409 0C381.7 0 354.3 0 327 0C299.7 0 272.3 0 245.2 0C218 0 191 0 163.8 0C136.7 0 109.3 0 82 0C54.7 0 27.3 0 13.7 0L0 0Z" fill="#6198ff"></path><path d="M0 187L13.7 191C27.3 195 54.7 203 82 195C109.3 187 136.7 163 163.8 164C191 165 218 191 245.2 185C272.3 179 299.7 141 327 127C354.3 113 381.7 123 409 133C436.3 143 463.7 153 491 153C518.3 153 545.7 143 573 144C600.3 145 627.7 157 654.8 155C682 153 709 137 736.2 129C763.3 121 790.7 121 818 123C845.3 125 872.7 129 886.3 131L900 133L900 35L886.3 42C872.7 49 845.3 63 818 64C790.7 65 763.3 53 736.2 49C709 45 682 49 654.8 50C627.7 51 600.3 49 573 52C545.7 55 518.3 63 491 66C463.7 69 436.3 67 409 63C381.7 59 354.3 53 327 59C299.7 65 272.3 83 245.2 85C218 87 191 73 163.8 72C136.7 71 109.3 83 82 85C54.7 87 27.3 79 13.7 75L0 71Z" fill="#3c80ff"></path><path d="M0 349L13.7 336C27.3 323 54.7 297 82 292C109.3 287 136.7 303 163.8 321C191 339 218 359 245.2 358C272.3 357 299.7 335 327 322C354.3 309 381.7 305 409 310C436.3 315 463.7 329 491 325C518.3 321 545.7 299 573 284C600.3 269 627.7 261 654.8 255C682 249 709 245 736.2 254C763.3 263 790.7 285 818 303C845.3 321 872.7 335 886.3 342L900 349L900 131L886.3 129C872.7 127 845.3 123 818 121C790.7 119 763.3 119 736.2 127C709 135 682 151 654.8 153C627.7 155 600.3 143 573 142C545.7 141 518.3 151 491 151C463.7 151 436.3 141 409 131C381.7 121 354.3 111 327 125C299.7 139 272.3 177 245.2 183C218 189 191 163 163.8 162C136.7 161 109.3 185 82 193C54.7 201 27.3 193 13.7 189L0 185Z" fill="#0066ff"></path><path d="M0 421L13.7 419C27.3 417 54.7 413 82 420C109.3 427 136.7 445 163.8 462C191 479 218 495 245.2 493C272.3 491 299.7 471 327 464C354.3 457 381.7 463 409 467C436.3 471 463.7 473 491 465C518.3 457 545.7 439 573 417C600.3 395 627.7 369 654.8 361C682 353 709 363 736.2 368C763.3 373 790.7 373 818 381C845.3 389 872.7 405 886.3 413L900 421L900 347L886.3 340C872.7 333 845.3 319 818 301C790.7 283 763.3 261 736.2 252C709 243 682 247 654.8 253C627.7 259 600.3 267 573 282C545.7 297 518.3 319 491 323C463.7 327 436.3 313 409 308C381.7 303 354.3 307 327 320C299.7 333 272.3 355 245.2 356C218 357 191 337 163.8 319C136.7 301 109.3 285 82 290C54.7 295 27.3 321 13.7 334L0 347Z" fill="#0059dd"></path><path d="M0 601L13.7 601C27.3 601 54.7 601 82 601C109.3 601 136.7 601 163.8 601C191 601 218 601 245.2 601C272.3 601 299.7 601 327 601C354.3 601 381.7 601 409 601C436.3 601 463.7 601 491 601C518.3 601 545.7 601 573 601C600.3 601 627.7 601 654.8 601C682 601 709 601 736.2 601C763.3 601 790.7 601 818 601C845.3 601 872.7 601 886.3 601L900 601L900 419L886.3 411C872.7 403 845.3 387 818 379C790.7 371 763.3 371 736.2 366C709 361 682 351 654.8 359C627.7 367 600.3 393 573 415C545.7 437 518.3 455 491 463C463.7 471 436.3 469 409 465C381.7 461 354.3 455 327 462C299.7 469 272.3 489 245.2 491C218 493 191 477 163.8 460C136.7 443 109.3 425 82 418C54.7 411 27.3 415 13.7 417L0 419Z" fill="#004cbb"></path></svg>